<?xml version="1.0" encoding="iso-8859-1"?>
<!-- Uploaded to: SVG Repo, www.svgrepo.com, Generator: SVG Repo Mixer Tools -->
<svg fill="#000000" height="800px" width="800px" version="1.1" id="Layer_1" xmlns="http://www.w3.org/2000/svg" xmlns:xlink="http://www.w3.org/1999/xlink" 
	 viewBox="0 0 512 512" xml:space="preserve">
<g>
	<g>
		<path d="M430.509,350.08H295.994V221.508h9.486c4.726,0,8.833-3.246,9.924-7.845l34.582-145.778c0,0,0-0.022,0-0.033
			c0.174-0.747,0.275-1.522,0.275-2.321C350.262,29.397,320.864,0,284.731,0h-57.46c-36.134,0-65.531,29.397-65.531,65.531
			c0,0.8,0.101,1.575,0.275,2.321c0,0.01,0,0.033,0,0.033l34.582,145.778c1.09,4.599,5.198,7.845,9.924,7.845h9.486v128.572H81.492
			c-27.333,0-49.57,22.237-49.57,49.57v48.947c0,5.633,4.566,10.199,10.199,10.199h33.428v43.004
			c0,5.633,4.566,10.199,10.199,10.199h340.503c5.633,0,10.199-4.566,10.199-10.199v-43.005h33.428
			c5.633,0,10.199-4.566,10.199-10.199V399.65C480.078,372.317,457.841,350.08,430.509,350.08z M227.27,20.398h57.46
			c21.381,0,39.335,14.942,43.97,34.933h-145.4C187.935,35.34,205.89,20.398,227.27,20.398z M214.584,201.11L184.841,75.73h142.32
			l-29.743,125.38H214.584z M236.406,221.508h39.189v128.572h-39.189V221.508z M416.054,491.602h-0.001H95.948v-32.806h320.105
			V491.602z M459.681,438.397H52.321V399.65c0-16.085,13.087-29.172,29.172-29.172h349.016c16.085,0,29.172,13.087,29.172,29.172
			V438.397z"/>
	</g>
</g>
<g>
	<g>
		<path d="M271.961,406.476H76.172c-5.633,0-10.199,4.566-10.199,10.199c0,5.633,4.566,10.199,10.199,10.199h195.789
			c5.633,0,10.199-4.566,10.199-10.199C282.16,411.042,277.594,406.476,271.961,406.476z"/>
	</g>
</g>
<g>
	<g>
		<path d="M313.461,406.476h-7.448c-5.633,0-10.199,4.566-10.199,10.199c0,5.633,4.566,10.199,10.199,10.199h7.448
			c5.633,0,10.199-4.566,10.199-10.199C323.66,411.042,319.094,406.476,313.461,406.476z"/>
	</g>
</g>
</svg>